<svg width="879" height="495" viewBox="0 0 879 495" fill="none" xmlns="http://www.w3.org/2000/svg">
<path fill-rule="evenodd" clip-rule="evenodd" d="M0 1.89583V0H2V1.89583H0ZM62.5 1.99194V0H64.5V1.99194H62.5ZM198.5 1.99194V0H200.5V1.99194H198.5ZM334.5 1.99194V0H336.5V1.99194H334.5ZM471.5 1.99194V0H473.5V1.99194H471.5ZM609 1.99194V0H611V1.99194H609ZM746.5 1.99194V0H748.5V1.99194H746.5ZM0 9.47917V5.6875H2V9.47917H0ZM62.5 9.95968V5.97581H64.5V9.95968H62.5ZM198.5 9.95968V5.97581H200.5V9.95968H198.5ZM334.5 9.95968V5.97581H336.5V9.95968H334.5ZM471.5 9.95968V5.97581H473.5V9.95968H471.5ZM609 9.95968V5.97581H611V9.95968H609ZM746.5 9.95968V5.97581H748.5V9.95968H746.5ZM0 17.0625V13.2708H2V17.0625H0ZM62.5 17.9274V13.9435H64.5V17.9274H62.5ZM198.5 17.9274V13.9435H200.5V17.9274H198.5ZM334.5 17.9274V13.9435H336.5V17.9274H334.5ZM471.5 17.9274V13.9435H473.5V17.9274H471.5ZM609 17.9274V13.9435H611V17.9274H609ZM746.5 17.9274V13.9435H748.5V17.9274H746.5ZM0 24.6458V20.8542H2V24.6458H0ZM62.5 25.8952V21.9113H64.5V25.8952H62.5ZM198.5 25.8952V21.9113H200.5V25.8952H198.5ZM334.5 25.8952V21.9113H336.5V25.8952H334.5ZM471.5 25.8952V21.9113H473.5V25.8952H471.5ZM609 25.8952V21.9113H611V25.8952H609ZM746.5 25.8952V21.9113H748.5V25.8952H746.5ZM0 32.2292V28.4375H2V32.2292H0ZM62.5 33.8629V29.879H64.5V33.8629H62.5ZM198.5 33.8629V29.879H200.5V33.8629H198.5ZM334.5 33.8629V29.879H336.5V33.8629H334.5ZM471.5 33.8629V29.879H473.5V33.8629H471.5ZM609 33.8629V29.879H611V33.8629H609ZM746.5 33.8629V29.879H748.5V33.8629H746.5ZM0 39.8125V36.0208H2V39.8125H0ZM62.5 41.8306V37.8468H64.5V41.8306H62.5ZM198.5 41.8306V37.8468H200.5V41.8306H198.5ZM334.5 41.8306V37.8468H336.5V41.8306H334.5ZM471.5 41.8306V37.8468H473.5V41.8306H471.5ZM609 41.8306V37.8468H611V41.8306H609ZM746.5 41.8306V37.8468H748.5V41.8306H746.5ZM0 43.6042H2V44.5H2.99432V46.5H2V47.5022H0V43.6042ZM10.9716 46.5H6.98295V44.5H10.9716V46.5ZM18.9489 46.5H14.9602V44.5H18.9489V46.5ZM26.9261 46.5H22.9375V44.5H26.9261V46.5ZM34.9034 46.5H30.9148V44.5H34.9034V46.5ZM42.8807 46.5H38.892V44.5H42.8807V46.5ZM50.858 46.5H46.8693V44.5H50.858V46.5ZM58.8352 46.5H54.8466V44.5H58.8352V46.5ZM64.5 46.5H66.8125V44.5H62.8239V45.8145H62.5V49.7984H64.5V46.5ZM74.7898 46.5H70.8011V44.5H74.7898V46.5ZM82.7671 46.5H78.7784V44.5H82.7671V46.5ZM90.7443 46.5H86.7557V44.5H90.7443V46.5ZM98.7216 46.5H94.733V44.5H98.7216V46.5ZM106.699 46.5H102.71V44.5H106.699V46.5ZM114.676 46.5H110.688V44.5H114.676V46.5ZM122.653 46.5H118.665V44.5H122.653V46.5ZM130.631 46.5H126.642V44.5H130.631V46.5ZM138.608 46.5H134.619V44.5H138.608V46.5ZM146.585 46.5H142.597V44.5H146.585V46.5ZM154.563 46.5H150.574V44.5H154.563V46.5ZM162.54 46.5H158.551V44.5H162.54V46.5ZM170.517 46.5H166.528V44.5H170.517V46.5ZM178.494 46.5H174.506V44.5H178.494V46.5ZM186.472 46.5H182.483V44.5H186.472V46.5ZM194.449 46.5H190.46V44.5H194.449V46.5ZM198.5 46.5H198.437V44.5H202.426V46.5H200.5V49.7984H198.5V46.5ZM210.403 46.5H206.415V44.5H210.403V46.5ZM218.381 46.5H214.392V44.5H218.381V46.5ZM226.358 46.5H222.369V44.5H226.358V46.5ZM234.335 46.5H230.347V44.5H234.335V46.5ZM242.312 46.5H238.324V44.5H242.312V46.5ZM250.29 46.5H246.301V44.5H250.29V46.5ZM258.267 46.5H254.278V44.5H258.267V46.5ZM266.244 46.5H262.256V44.5H266.244V46.5ZM274.222 46.5H270.233V44.5H274.222V46.5ZM282.199 46.5H278.21V44.5H282.199V46.5ZM290.176 46.5H286.188V44.5H290.176V46.5ZM298.153 46.5H294.165V44.5H298.153V46.5ZM306.131 46.5H302.142V44.5H306.131V46.5ZM314.108 46.5H310.119V44.5H314.108V46.5ZM322.085 46.5H318.097V44.5H322.085V46.5ZM330.063 46.5H326.074V44.5H330.063V46.5ZM334.5 46.5H334.051V44.5H338.04V46.5H336.5V49.7984H334.5V46.5ZM346.017 46.5H342.029V44.5H346.017V46.5ZM353.995 46.5H350.006V44.5H353.995V46.5ZM361.972 46.5H357.983V44.5H361.972V46.5ZM369.949 46.5H365.96V44.5H369.949V46.5ZM377.926 46.5H373.938V44.5H377.926V46.5ZM385.904 46.5H381.915V44.5H385.904V46.5ZM393.881 46.5H389.892V44.5H393.881V46.5ZM401.858 46.5H397.87V44.5H401.858V46.5ZM409.836 46.5H405.847V44.5H409.836V46.5ZM417.813 46.5H413.824V44.5H417.813V46.5ZM425.79 46.5H421.802V44.5H425.79V46.5ZM433.767 46.5H429.779V44.5H433.767V46.5ZM441.745 46.5H437.756V44.5H441.745V46.5ZM449.722 46.5H445.733V44.5H449.722V46.5ZM457.699 46.5H453.711V44.5H457.699V46.5ZM465.677 46.5H461.688V44.5H465.677V46.5ZM471.5 46.5H469.665V44.5H473.654V46.5H473.5V49.7984H471.5V46.5ZM481.631 46.5H477.643V44.5H481.631V46.5ZM489.609 46.5H485.62V44.5H489.609V46.5ZM497.586 46.5H493.597V44.5H497.586V46.5ZM505.563 46.5H501.574V44.5H505.563V46.5ZM513.54 46.5H509.552V44.5H513.54V46.5ZM521.518 46.5H517.529V44.5H521.518V46.5ZM529.495 46.5H525.506V44.5H529.495V46.5ZM537.472 46.5H533.484V44.5H537.472V46.5ZM545.45 46.5H541.461V44.5H545.45V46.5ZM553.427 46.5H549.438V44.5H553.427V46.5ZM561.404 46.5H557.416V44.5H561.404V46.5ZM569.381 46.5H565.393V44.5H569.381V46.5ZM577.359 46.5H573.37V44.5H577.359V46.5ZM585.336 46.5H581.347V44.5H585.336V46.5ZM593.313 46.5H589.325V44.5H593.313V46.5ZM601.291 46.5H597.302V44.5H601.291V46.5ZM609 46.5H605.279V44.5H609.268V45.8145H611V49.7984H609V46.5ZM617.245 46.5H613.257V44.5H617.245V46.5ZM625.223 46.5H621.234V44.5H625.223V46.5ZM633.2 46.5H629.211V44.5H633.2V46.5ZM641.177 46.5H637.188V44.5H641.177V46.5ZM649.154 46.5H645.166V44.5H649.154V46.5ZM657.132 46.5H653.143V44.5H657.132V46.5ZM665.109 46.5H661.12V44.5H665.109V46.5ZM673.086 46.5H669.098V44.5H673.086V46.5ZM681.064 46.5H677.075V44.5H681.064V46.5ZM689.041 46.5H685.052V44.5H689.041V46.5ZM697.018 46.5H693.03V44.5H697.018V46.5ZM704.995 46.5H701.007V44.5H704.995V46.5ZM712.973 46.5H708.984V44.5H712.973V46.5ZM720.95 46.5H716.961V44.5H720.95V46.5ZM728.927 46.5H724.939V44.5H728.927V46.5ZM736.905 46.5H732.916V44.5H736.905V46.5ZM744.882 46.5H740.893V44.5H744.882V46.5ZM752.859 46.5H748.871V44.5H752.859V46.5ZM760.837 46.5H756.848V44.5H760.837V46.5ZM768.814 46.5H764.825V44.5H768.814V46.5ZM776.791 46.5H772.802V44.5H776.791V46.5ZM784.768 46.5H780.78V44.5H784.768V46.5ZM792.746 46.5H788.757V44.5H792.746V46.5ZM800.723 46.5H796.734V44.5H800.723V46.5ZM808.7 46.5H804.712V44.5H808.7V46.5ZM816.678 46.5H812.689V44.5H816.678V46.5ZM824.655 46.5H820.666V44.5H824.655V46.5ZM832.632 46.5H828.644V44.5H832.632V46.5ZM840.609 46.5H836.621V44.5H840.609V46.5ZM848.587 46.5H844.598V44.5H848.587V46.5ZM856.564 46.5H852.575V44.5H856.564V46.5ZM864.541 46.5H860.553V44.5H864.541V46.5ZM872.519 46.5H868.53V44.5H872.519V46.5ZM878.5 46.5H876.507V44.5H878.5V46.5ZM746.5 49.7984V45.8145H748.5V49.7984H746.5ZM0 55.5112V51.5067H2V55.5112H0ZM62.5 57.7661V53.7823H64.5V57.7661H62.5ZM198.5 57.7661V53.7823H200.5V57.7661H198.5ZM334.5 57.7661V53.7823H336.5V57.7661H334.5ZM471.5 57.7661V53.7823H473.5V57.7661H471.5ZM609 57.7661V53.7823H611V57.7661H609ZM746.5 57.7661V53.7823H748.5V57.7661H746.5ZM0 63.5201V59.5156H2V63.5201H0ZM62.5 65.7339V61.75H64.5V65.7339H62.5ZM198.5 65.7339V61.75H200.5V65.7339H198.5ZM334.5 65.7339V61.75H336.5V65.7339H334.5ZM471.5 65.7339V61.75H473.5V65.7339H471.5ZM609 65.7339V61.75H611V65.7339H609ZM746.5 65.7339V61.75H748.5V65.7339H746.5ZM0 71.529V67.5246H2V71.529H0ZM62.5 73.7016V69.7177H64.5V73.7016H62.5ZM198.5 73.7016V69.7177H200.5V73.7016H198.5ZM334.5 73.7016V69.7177H336.5V73.7016H334.5ZM471.5 73.7016V69.7177H473.5V73.7016H471.5ZM609 73.7016V69.7177H611V73.7016H609ZM746.5 73.7016V69.7177H748.5V73.7016H746.5ZM0 79.5379V75.5335H2V79.5379H0ZM62.5 81.6694V77.6855H64.5V81.6694H62.5ZM198.5 81.6694V77.6855H200.5V81.6694H198.5ZM334.5 81.6694V77.6855H336.5V81.6694H334.5ZM471.5 81.6694V77.6855H473.5V81.6694H471.5ZM609 81.6694V77.6855H611V81.6694H609ZM746.5 81.6694V77.6855H748.5V81.6694H746.5ZM0 87.5469V83.5424H2V87.5469H0ZM62.5 89.6371V85.6532H64.5V89.6371H62.5ZM198.5 89.6371V85.6532H200.5V89.6371H198.5ZM334.5 89.6371V85.6532H336.5V89.6371H334.5ZM471.5 89.6371V85.6532H473.5V89.6371H471.5ZM609 89.6371V85.6532H611V89.6371H609ZM746.5 89.6371V85.6532H748.5V89.6371H746.5ZM0 95.5558V91.5513H2V95.5558H0ZM62.5 97.6048V93.621H64.5V97.6048H62.5ZM198.5 97.6048V93.621H200.5V97.6048H198.5ZM334.5 97.6048V93.621H336.5V97.6048H334.5ZM471.5 97.6048V93.621H473.5V97.6048H471.5ZM609 97.6048V93.621H611V97.6048H609ZM746.5 97.6048V93.621H748.5V97.6048H746.5ZM2 100.5H2.99432V98.5H1V99.5603H0V103.565H2V100.5ZM10.9716 100.5H6.98295V98.5H10.9716V100.5ZM18.9489 100.5H14.9602V98.5H18.9489V100.5ZM26.9261 100.5H22.9375V98.5H26.9261V100.5ZM34.9034 100.5H30.9148V98.5H34.9034V100.5ZM42.8807 100.5H38.892V98.5H42.8807V100.5ZM50.858 100.5H46.8693V98.5H50.858V100.5ZM58.8352 100.5H54.8466V98.5H58.8352V100.5ZM66.8125 100.5H62.8239V98.5H66.8125V100.5ZM74.7898 100.5H70.8011V98.5H74.7898V100.5ZM82.7671 100.5H78.7784V98.5H82.7671V100.5ZM90.7443 100.5H86.7557V98.5H90.7443V100.5ZM98.7216 100.5H94.733V98.5H98.7216V100.5ZM106.699 100.5H102.71V98.5H106.699V100.5ZM114.676 100.5H110.688V98.5H114.676V100.5ZM122.653 100.5H118.665V98.5H122.653V100.5ZM130.631 100.5H126.642V98.5H130.631V100.5ZM138.608 100.5H134.619V98.5H138.608V100.5ZM146.585 100.5H142.597V98.5H146.585V100.5ZM154.563 100.5H150.574V98.5H154.563V100.5ZM162.54 100.5H158.551V98.5H162.54V100.5ZM170.517 100.5H166.528V98.5H170.517V100.5ZM178.494 100.5H174.506V98.5H178.494V100.5ZM186.472 100.5H182.483V98.5H186.472V100.5ZM194.449 100.5H190.46V98.5H194.449V100.5ZM202.426 100.5H198.437V98.5H202.426V100.5ZM210.403 100.5H206.415V98.5H210.403V100.5ZM218.381 100.5H214.392V98.5H218.381V100.5ZM226.358 100.5H222.369V98.5H226.358V100.5ZM234.335 100.5H230.347V98.5H234.335V100.5ZM242.312 100.5H238.324V98.5H242.312V100.5ZM250.29 100.5H246.301V98.5H250.29V100.5ZM258.267 100.5H254.278V98.5H258.267V100.5ZM266.244 100.5H262.256V98.5H266.244V100.5ZM274.222 100.5H270.233V98.5H274.222V100.5ZM282.199 100.5H278.21V98.5H282.199V100.5ZM290.176 100.5H286.188V98.5H290.176V100.5ZM298.153 100.5H294.165V98.5H298.153V100.5ZM306.131 100.5H302.142V98.5H306.131V100.5ZM314.108 100.5H310.119V98.5H314.108V100.5ZM322.085 100.5H318.097V98.5H322.085V100.5ZM330.063 100.5H326.074V98.5H330.063V100.5ZM338.04 100.5H334.051V98.5H338.04V100.5ZM346.017 100.5H342.029V98.5H346.017V100.5ZM353.995 100.5H350.006V98.5H353.995V100.5ZM361.972 100.5H357.983V98.5H361.972V100.5ZM369.949 100.5H365.96V98.5H369.949V100.5ZM377.926 100.5H373.938V98.5H377.926V100.5ZM385.904 100.5H381.915V98.5H385.904V100.5ZM393.881 100.5H389.892V98.5H393.881V100.5ZM401.858 100.5H397.87V98.5H401.858V100.5ZM409.836 100.5H405.847V98.5H409.836V100.5ZM417.813 100.5H413.824V98.5H417.813V100.5ZM425.79 100.5H421.802V98.5H425.79V100.5ZM433.767 100.5H429.779V98.5H433.767V100.5ZM441.745 100.5H437.756V98.5H441.745V100.5ZM449.722 100.5H445.733V98.5H449.722V100.5ZM457.699 100.5H453.711V98.5H457.699V100.5ZM465.677 100.5H461.688V98.5H465.677V100.5ZM473.654 100.5H469.665V98.5H473.654V100.5ZM481.631 100.5H477.643V98.5H481.631V100.5ZM489.609 100.5H485.62V98.5H489.609V100.5ZM497.586 100.5H493.597V98.5H497.586V100.5ZM505.563 100.5H501.574V98.5H505.563V100.5ZM513.54 100.5H509.552V98.5H513.54V100.5ZM521.518 100.5H517.529V98.5H521.518V100.5ZM529.495 100.5H525.506V98.5H529.495V100.5ZM537.472 100.5H533.484V98.5H537.472V100.5ZM545.45 100.5H541.461V98.5H545.45V100.5ZM553.427 100.5H549.438V98.5H553.427V100.5ZM561.404 100.5H557.416V98.5H561.404V100.5ZM569.381 100.5H565.393V98.5H569.381V100.5ZM577.359 100.5H573.37V98.5H577.359V100.5ZM585.336 100.5H581.347V98.5H585.336V100.5ZM593.313 100.5H589.325V98.5H593.313V100.5ZM601.291 100.5H597.302V98.5H601.291V100.5ZM609.268 100.5H605.279V98.5H609.268V100.5ZM617.245 100.5H613.257V98.5H617.245V100.5ZM625.223 100.5H621.234V98.5H625.223V100.5ZM633.2 100.5H629.211V98.5H633.2V100.5ZM641.177 100.5H637.188V98.5H641.177V100.5ZM649.154 100.5H645.166V98.5H649.154V100.5ZM657.132 100.5H653.143V98.5H657.132V100.5ZM665.109 100.5H661.12V98.5H665.109V100.5ZM673.086 100.5H669.098V98.5H673.086V100.5ZM681.064 100.5H677.075V98.5H681.064V100.5ZM689.041 100.5H685.052V98.5H689.041V100.5ZM697.018 100.5H693.03V98.5H697.018V100.5ZM704.995 100.5H701.007V98.5H704.995V100.5ZM712.973 100.5H708.984V98.5H712.973V100.5ZM720.95 100.5H716.961V98.5H720.95V100.5ZM728.927 100.5H724.939V98.5H728.927V100.5ZM736.905 100.5H732.916V98.5H736.905V100.5ZM744.882 100.5H740.893V98.5H744.882V100.5ZM752.859 100.5H748.871V98.5H752.859V100.5ZM760.837 100.5H756.848V98.5H760.837V100.5ZM768.814 100.5H764.825V98.5H768.814V100.5ZM776.791 100.5H772.802V98.5H776.791V100.5ZM784.768 100.5H780.78V98.5H784.768V100.5ZM792.746 100.5H788.757V98.5H792.746V100.5ZM800.723 100.5H796.734V98.5H800.723V100.5ZM808.7 100.5H804.712V98.5H808.7V100.5ZM816.678 100.5H812.689V98.5H816.678V100.5ZM824.655 100.5H820.666V98.5H824.655V100.5ZM832.632 100.5H828.644V98.5H832.632V100.5ZM840.609 100.5H836.621V98.5H840.609V100.5ZM848.587 100.5H844.598V98.5H848.587V100.5ZM856.564 100.5H852.575V98.5H856.564V100.5ZM864.541 100.5H860.553V98.5H864.541V100.5ZM872.519 100.5H868.53V98.5H872.519V100.5ZM878.5 100.5H876.507V98.5H878.5V100.5ZM62.5 105.573V101.589H64.5V105.573H62.5ZM198.5 105.573V101.589H200.5V105.573H198.5ZM334.5 105.573V101.589H336.5V105.573H334.5ZM471.5 105.573V101.589H473.5V105.573H471.5ZM609 105.573V101.589H611V105.573H609ZM746.5 105.573V101.589H748.5V105.573H746.5ZM0 111.574V107.569H2V111.574H0ZM62.5 113.54V109.556H64.5V113.54H62.5ZM198.5 113.54V109.556H200.5V113.54H198.5ZM334.5 113.54V109.556H336.5V113.54H334.5ZM471.5 113.54V109.556H473.5V113.54H471.5ZM609 113.54V109.556H611V113.54H609ZM746.5 113.54V109.556H748.5V113.54H746.5ZM0 119.583V115.578H2V119.583H0ZM62.5 121.508V117.524H64.5V121.508H62.5ZM198.5 121.508V117.524H200.5V121.508H198.5ZM334.5 121.508V117.524H336.5V121.508H334.5ZM471.5 121.508V117.524H473.5V121.508H471.5ZM609 121.508V117.524H611V121.508H609ZM746.5 121.508V117.524H748.5V121.508H746.5ZM0 127.591V123.587H2V127.591H0ZM62.5 129.476V125.492H64.5V129.476H62.5ZM198.5 129.476V125.492H200.5V129.476H198.5ZM334.5 129.476V125.492H336.5V129.476H334.5ZM471.5 129.476V125.492H473.5V129.476H471.5ZM609 129.476V125.492H611V129.476H609ZM746.5 129.476V125.492H748.5V129.476H746.5ZM0 135.6V131.596H2V135.6H0ZM62.5 137.444V133.46H64.5V137.444H62.5ZM198.5 137.444V133.46H200.5V137.444H198.5ZM334.5 137.444V133.46H336.5V137.444H334.5ZM471.5 137.444V133.46H473.5V137.444H471.5ZM609 137.444V133.46H611V137.444H609ZM746.5 137.444V133.46H748.5V137.444H746.5ZM0 143.609V139.605H2V143.609H0ZM62.5 145.411V141.427H64.5V145.411H62.5ZM198.5 145.411V141.427H200.5V145.411H198.5ZM334.5 145.411V141.427H336.5V145.411H334.5ZM471.5 145.411V141.427H473.5V145.411H471.5ZM609 145.411V141.427H611V145.411H609ZM746.5 145.411V141.427H748.5V145.411H746.5ZM0 151.618V147.614H2V151.618H0ZM62.5 153.379V149.395H64.5V153.379H62.5ZM198.5 153.379V149.395H200.5V153.379H198.5ZM334.5 153.379V149.395H336.5V153.379H334.5ZM471.5 153.379V149.395H473.5V153.379H471.5ZM609 153.379V149.395H611V153.379H609ZM746.5 153.379V149.395H748.5V153.379H746.5ZM0 159.627V155.623H2V158.5H2.99432V160.5H1V159.627H0ZM62.5 161.347V157.363H64.5V158.5H66.8125V160.5H64.5V161.347H62.5ZM198.5 158.5V157.363H200.5V158.5H202.426V160.5H200.5V161.347H198.5V160.5H198.437V158.5H198.5ZM334.5 158.5V157.363H336.5V158.5H338.04V160.5H336.5V161.347H334.5V160.5H334.051V158.5H334.5ZM471.5 158.5V157.363H473.5V158.5H473.654V160.5H473.5V161.347H471.5V160.5H469.665V158.5H471.5ZM609 158.5V157.363H611V161.347H609V160.5H605.279V158.5H609ZM746.5 161.347V157.363H748.5V161.347H746.5ZM10.9716 160.5H6.98295V158.5H10.9716V160.5ZM18.9489 160.5H14.9602V158.5H18.9489V160.5ZM26.9261 160.5H22.9375V158.5H26.9261V160.5ZM34.9034 160.5H30.9148V158.5H34.9034V160.5ZM42.8807 160.5H38.892V158.5H42.8807V160.5ZM50.858 160.5H46.8693V158.5H50.858V160.5ZM58.8352 160.5H54.8466V158.5H58.8352V160.5ZM74.7898 160.5H70.8011V158.5H74.7898V160.5ZM82.7671 160.5H78.7784V158.5H82.7671V160.5ZM90.7443 160.5H86.7557V158.5H90.7443V160.5ZM98.7216 160.5H94.733V158.5H98.7216V160.5ZM106.699 160.5H102.71V158.5H106.699V160.5ZM114.676 160.5H110.688V158.5H114.676V160.5ZM122.653 160.5H118.665V158.5H122.653V160.5ZM130.631 160.5H126.642V158.5H130.631V160.5ZM138.608 160.5H134.619V158.5H138.608V160.5ZM146.585 160.5H142.597V158.5H146.585V160.5ZM154.563 160.5H150.574V158.5H154.563V160.5ZM162.54 160.5H158.551V158.5H162.54V160.5ZM170.517 160.5H166.528V158.5H170.517V160.5ZM178.494 160.5H174.506V158.5H178.494V160.5ZM186.472 160.5H182.483V158.5H186.472V160.5ZM194.449 160.5H190.46V158.5H194.449V160.5ZM210.403 160.5H206.415V158.5H210.403V160.5ZM218.381 160.5H214.392V158.5H218.381V160.5ZM226.358 160.5H222.369V158.5H226.358V160.5ZM234.335 160.5H230.347V158.5H234.335V160.5ZM242.312 160.5H238.324V158.5H242.312V160.5ZM250.29 160.5H246.301V158.5H250.29V160.5ZM258.267 160.5H254.278V158.5H258.267V160.5ZM266.244 160.5H262.256V158.5H266.244V160.5ZM274.222 160.5H270.233V158.5H274.222V160.5ZM282.199 160.5H278.21V158.5H282.199V160.5ZM290.176 160.5H286.188V158.5H290.176V160.5ZM298.153 160.5H294.165V158.5H298.153V160.5ZM306.131 160.5H302.142V158.5H306.131V160.5ZM314.108 160.5H310.119V158.5H314.108V160.5ZM322.085 160.5H318.097V158.5H322.085V160.5ZM330.063 160.5H326.074V158.5H330.063V160.5ZM346.017 160.5H342.029V158.5H346.017V160.5ZM353.995 160.5H350.006V158.5H353.995V160.5ZM361.972 160.5H357.983V158.5H361.972V160.5ZM369.949 160.5H365.96V158.5H369.949V160.5ZM377.926 160.5H373.938V158.5H377.926V160.5ZM385.904 160.5H381.915V158.5H385.904V160.5ZM393.881 160.5H389.892V158.5H393.881V160.5ZM401.858 160.5H397.87V158.5H401.858V160.5ZM409.836 160.5H405.847V158.5H409.836V160.5ZM417.813 160.5H413.824V158.5H417.813V160.5ZM425.79 160.5H421.802V158.5H425.79V160.5ZM433.767 160.5H429.779V158.5H433.767V160.5ZM441.745 160.5H437.756V158.5H441.745V160.5ZM449.722 160.5H445.733V158.5H449.722V160.5ZM457.699 160.5H453.711V158.5H457.699V160.5ZM465.677 160.5H461.688V158.5H465.677V160.5ZM481.631 160.5H477.643V158.5H481.631V160.5ZM489.609 160.5H485.62V158.5H489.609V160.5ZM497.586 160.5H493.597V158.5H497.586V160.5ZM505.563 160.5H501.574V158.5H505.563V160.5ZM513.54 160.5H509.552V158.5H513.54V160.5ZM521.518 160.5H517.529V158.5H521.518V160.5ZM529.495 160.5H525.506V158.5H529.495V160.5ZM537.472 160.5H533.484V158.5H537.472V160.5ZM545.45 160.5H541.461V158.5H545.45V160.5ZM553.427 160.5H549.438V158.5H553.427V160.5ZM561.404 160.5H557.416V158.5H561.404V160.5ZM569.381 160.5H565.393V158.5H569.381V160.5ZM577.359 160.5H573.37V158.5H577.359V160.5ZM585.336 160.5H581.347V158.5H585.336V160.5ZM593.313 160.5H589.325V158.5H593.313V160.5ZM601.291 160.5H597.302V158.5H601.291V160.5ZM617.245 160.5H613.257V158.5H617.245V160.5ZM625.223 160.5H621.234V158.5H625.223V160.5ZM633.2 160.5H629.211V158.5H633.2V160.5ZM641.177 160.5H637.188V158.5H641.177V160.5ZM649.154 160.5H645.166V158.5H649.154V160.5ZM657.132 160.5H653.143V158.5H657.132V160.5ZM665.109 160.5H661.12V158.5H665.109V160.5ZM673.086 160.5H669.098V158.5H673.086V160.5ZM681.064 160.5H677.075V158.5H681.064V160.5ZM689.041 160.5H685.052V158.5H689.041V160.5ZM697.018 160.5H693.03V158.5H697.018V160.5ZM704.995 160.5H701.007V158.5H704.995V160.5ZM712.973 160.5H708.984V158.5H712.973V160.5ZM720.95 160.5H716.961V158.5H720.95V160.5ZM728.927 160.5H724.939V158.5H728.927V160.5ZM736.905 160.5H732.916V158.5H736.905V160.5ZM744.882 160.5H740.893V158.5H744.882V160.5ZM752.859 160.5H748.871V158.5H752.859V160.5ZM760.837 160.5H756.848V158.5H760.837V160.5ZM768.814 160.5H764.825V158.5H768.814V160.5ZM776.791 160.5H772.802V158.5H776.791V160.5ZM784.768 160.5H780.78V158.5H784.768V160.5ZM792.746 160.5H788.757V158.5H792.746V160.5ZM800.723 160.5H796.734V158.5H800.723V160.5ZM808.7 160.5H804.712V158.5H808.7V160.5ZM816.678 160.5H812.689V158.5H816.678V160.5ZM824.655 160.5H820.666V158.5H824.655V160.5ZM832.632 160.5H828.644V158.5H832.632V160.5ZM840.609 160.5H836.621V158.5H840.609V160.5ZM848.587 160.5H844.598V158.5H848.587V160.5ZM856.564 160.5H852.575V158.5H856.564V160.5ZM864.541 160.5H860.553V158.5H864.541V160.5ZM872.519 160.5H868.53V158.5H872.519V160.5ZM878.5 160.5H876.507V158.5H878.5V160.5ZM0 167.636V163.632H2V167.636H0ZM62.5 169.315V165.331H64.5V169.315H62.5ZM198.5 169.315V165.331H200.5V169.315H198.5ZM334.5 169.315V165.331H336.5V169.315H334.5ZM471.5 169.315V165.331H473.5V169.315H471.5ZM609 169.315V165.331H611V169.315H609ZM746.5 169.315V165.331H748.5V169.315H746.5ZM0 175.645V171.641H2V175.645H0ZM62.5 177.282V173.298H64.5V177.282H62.5ZM198.5 177.282V173.298H200.5V177.282H198.5ZM334.5 177.282V173.298H336.5V177.282H334.5ZM471.5 177.282V173.298H473.5V177.282H471.5ZM609 177.282V173.298H611V177.282H609ZM746.5 177.282V173.298H748.5V177.282H746.5ZM0 183.654V179.65H2V183.654H0ZM62.5 185.25V181.266H64.5V185.25H62.5ZM198.5 185.25V181.266H200.5V185.25H198.5ZM334.5 185.25V181.266H336.5V185.25H334.5ZM471.5 185.25V181.266H473.5V185.25H471.5ZM609 185.25V181.266H611V185.25H609ZM746.5 185.25V181.266H748.5V185.25H746.5ZM0 191.663V187.658H2V191.663H0ZM62.5 193.218V189.234H64.5V193.218H62.5ZM198.5 193.218V189.234H200.5V193.218H198.5ZM334.5 193.218V189.234H336.5V193.218H334.5ZM471.5 193.218V189.234H473.5V193.218H471.5ZM609 193.218V189.234H611V193.218H609ZM746.5 193.218V189.234H748.5V193.218H746.5ZM0 199.672V195.667H2V199.672H0ZM62.5 201.186V197.202H64.5V201.186H62.5ZM198.5 201.186V197.202H200.5V201.186H198.5ZM334.5 201.186V197.202H336.5V201.186H334.5ZM471.5 201.186V197.202H473.5V201.186H471.5ZM609 201.186V197.202H611V201.186H609ZM746.5 201.186V197.202H748.5V201.186H746.5ZM0 207.681V203.676H2V207.681H0ZM62.5 209.153V205.169H64.5V209.153H62.5ZM198.5 209.153V205.169H200.5V209.153H198.5ZM334.5 209.153V205.169H336.5V209.153H334.5ZM471.5 209.153V205.169H473.5V209.153H471.5ZM609 209.153V205.169H611V209.153H609ZM746.5 209.153V205.169H748.5V209.153H746.5ZM0 215.69V211.685H2V215.69H0ZM62.5 217.121V213.137H64.5V216.5H66.8125V218.5H62.8239V217.121H62.5ZM198.5 216.5V213.137H200.5V216.5H202.426V218.5H198.437V216.5H198.5ZM334.5 216.5V213.137H336.5V216.5H338.04V218.5H334.051V216.5H334.5ZM471.5 216.5V213.137H473.5V216.5H473.654V218.5H469.665V216.5H471.5ZM609 216.5V213.137H611V217.121H609.268V218.5H605.279V216.5H609ZM746.5 217.121V213.137H748.5V217.121H746.5ZM2.99432 218.5H1V216.5H2.99432V218.5ZM10.9716 218.5H6.98295V216.5H10.9716V218.5ZM18.9489 218.5H14.9602V216.5H18.9489V218.5ZM26.9261 218.5H22.9375V216.5H26.9261V218.5ZM34.9034 218.5H30.9148V216.5H34.9034V218.5ZM42.8807 218.5H38.892V216.5H42.8807V218.5ZM50.858 218.5H46.8693V216.5H50.858V218.5ZM58.8352 218.5H54.8466V216.5H58.8352V218.5ZM74.7898 218.5H70.8011V216.5H74.7898V218.5ZM82.7671 218.5H78.7784V216.5H82.7671V218.5ZM90.7443 218.5H86.7557V216.5H90.7443V218.5ZM98.7216 218.5H94.733V216.5H98.7216V218.5ZM106.699 218.5H102.71V216.5H106.699V218.5ZM114.676 218.5H110.688V216.5H114.676V218.5ZM122.653 218.5H118.665V216.5H122.653V218.5ZM130.631 218.5H126.642V216.5H130.631V218.5ZM138.608 218.5H134.619V216.5H138.608V218.5ZM146.585 218.5H142.597V216.5H146.585V218.5ZM154.563 218.5H150.574V216.5H154.563V218.5ZM162.54 218.5H158.551V216.5H162.54V218.5ZM170.517 218.5H166.528V216.5H170.517V218.5ZM178.494 218.5H174.506V216.5H178.494V218.5ZM186.472 218.5H182.483V216.5H186.472V218.5ZM194.449 218.5H190.46V216.5H194.449V218.5ZM210.403 218.5H206.415V216.5H210.403V218.5ZM218.381 218.5H214.392V216.5H218.381V218.5ZM226.358 218.5H222.369V216.5H226.358V218.5ZM234.335 218.5H230.347V216.5H234.335V218.5ZM242.312 218.5H238.324V216.5H242.312V218.5ZM250.29 218.5H246.301V216.5H250.29V218.5ZM258.267 218.5H254.278V216.5H258.267V218.5ZM266.244 218.5H262.256V216.5H266.244V218.5ZM274.222 218.5H270.233V216.5H274.222V218.5ZM282.199 218.5H278.21V216.5H282.199V218.5ZM290.176 218.5H286.188V216.5H290.176V218.5ZM298.153 218.5H294.165V216.5H298.153V218.5ZM306.131 218.5H302.142V216.5H306.131V218.5ZM314.108 218.5H310.119V216.5H314.108V218.5ZM322.085 218.5H318.097V216.5H322.085V218.5ZM330.063 218.5H326.074V216.5H330.063V218.5ZM346.017 218.5H342.029V216.5H346.017V218.5ZM353.995 218.5H350.006V216.5H353.995V218.5ZM361.972 218.5H357.983V216.5H361.972V218.5ZM369.949 218.5H365.96V216.5H369.949V218.5ZM377.926 218.5H373.938V216.5H377.926V218.5ZM385.904 218.5H381.915V216.5H385.904V218.5ZM393.881 218.5H389.892V216.5H393.881V218.5ZM401.858 218.5H397.87V216.5H401.858V218.5ZM409.836 218.5H405.847V216.5H409.836V218.5ZM417.813 218.5H413.824V216.5H417.813V218.5ZM425.79 218.5H421.802V216.5H425.79V218.5ZM433.767 218.5H429.779V216.5H433.767V218.5ZM441.745 218.5H437.756V216.5H441.745V218.5ZM449.722 218.5H445.733V216.5H449.722V218.5ZM457.699 218.5H453.711V216.5H457.699V218.5ZM465.677 218.5H461.688V216.5H465.677V218.5ZM481.631 218.5H477.643V216.5H481.631V218.5ZM489.609 218.5H485.62V216.5H489.609V218.5ZM497.586 218.5H493.597V216.5H497.586V218.5ZM505.563 218.5H501.574V216.5H505.563V218.5ZM513.54 218.5H509.552V216.5H513.54V218.5ZM521.518 218.5H517.529V216.5H521.518V218.5ZM529.495 218.5H525.506V216.5H529.495V218.5ZM537.472 218.5H533.484V216.5H537.472V218.5ZM545.45 218.5H541.461V216.5H545.45V218.5ZM553.427 218.5H549.438V216.5H553.427V218.5ZM561.404 218.5H557.416V216.5H561.404V218.5ZM569.381 218.5H565.393V216.5H569.381V218.5ZM577.359 218.5H573.37V216.5H577.359V218.5ZM585.336 218.5H581.347V216.5H585.336V218.5ZM593.313 218.5H589.325V216.5H593.313V218.5ZM601.291 218.5H597.302V216.5H601.291V218.5ZM617.245 218.5H613.257V216.5H617.245V218.5ZM625.223 218.5H621.234V216.5H625.223V218.5ZM633.2 218.5H629.211V216.5H633.2V218.5ZM641.177 218.5H637.188V216.5H641.177V218.5ZM649.154 218.5H645.166V216.5H649.154V218.5ZM657.132 218.5H653.143V216.5H657.132V218.5ZM665.109 218.5H661.12V216.5H665.109V218.5ZM673.086 218.5H669.098V216.5H673.086V218.5ZM681.064 218.5H677.075V216.5H681.064V218.5ZM689.041 218.5H685.052V216.5H689.041V218.5ZM697.018 218.5H693.03V216.5H697.018V218.5ZM704.995 218.5H701.007V216.5H704.995V218.5ZM712.973 218.5H708.984V216.5H712.973V218.5ZM720.95 218.5H716.961V216.5H720.95V218.5ZM728.927 218.5H724.939V216.5H728.927V218.5ZM736.905 218.5H732.916V216.5H736.905V218.5ZM744.882 218.5H740.893V216.5H744.882V218.5ZM752.859 218.5H748.871V216.5H752.859V218.5ZM760.837 218.5H756.848V216.5H760.837V218.5ZM768.814 218.5H764.825V216.5H768.814V218.5ZM776.791 218.5H772.802V216.5H776.791V218.5ZM784.768 218.5H780.78V216.5H784.768V218.5ZM792.746 218.5H788.757V216.5H792.746V218.5ZM800.723 218.5H796.734V216.5H800.723V218.5ZM808.7 218.5H804.712V216.5H808.7V218.5ZM816.678 218.5H812.689V216.5H816.678V218.5ZM824.655 218.5H820.666V216.5H824.655V218.5ZM832.632 218.5H828.644V216.5H832.632V218.5ZM840.609 218.5H836.621V216.5H840.609V218.5ZM848.587 218.5H844.598V216.5H848.587V218.5ZM856.564 218.5H852.575V216.5H856.564V218.5ZM864.541 218.5H860.553V216.5H864.541V218.5ZM872.519 218.5H868.53V216.5H872.519V218.5ZM878.5 218.5H876.507V216.5H878.5V218.5ZM0 223.699V219.694H2V223.699H0ZM62.5 225.089V221.105H64.5V225.089H62.5ZM198.5 225.089V221.105H200.5V225.089H198.5ZM334.5 225.089V221.105H336.5V225.089H334.5ZM471.5 225.089V221.105H473.5V225.089H471.5ZM609 225.089V221.105H611V225.089H609ZM746.5 225.089V221.105H748.5V225.089H746.5ZM0 231.708V227.703H2V231.708H0ZM62.5 233.056V229.073H64.5V233.056H62.5ZM198.5 233.056V229.073H200.5V233.056H198.5ZM334.5 233.056V229.073H336.5V233.056H334.5ZM471.5 233.056V229.073H473.5V233.056H471.5ZM609 233.056V229.073H611V233.056H609ZM746.5 233.056V229.073H748.5V233.056H746.5ZM0 239.717V235.712H2V239.717H0ZM62.5 241.024V237.04H64.5V241.024H62.5ZM198.5 241.024V237.04H200.5V241.024H198.5ZM334.5 241.024V237.04H336.5V241.024H334.5ZM471.5 241.024V237.04H473.5V241.024H471.5ZM609 241.024V237.04H611V241.024H609ZM746.5 241.024V237.04H748.5V241.024H746.5ZM0 247.726V243.721H2V247.726H0ZM62.5 248.992V245.008H64.5V248.992H62.5ZM198.5 248.992V245.008H200.5V248.992H198.5ZM334.5 248.992V245.008H336.5V248.992H334.5ZM471.5 248.992V245.008H473.5V248.992H471.5ZM609 248.992V245.008H611V248.992H609ZM746.5 248.992V245.008H748.5V248.992H746.5ZM0 255.734V251.73H2V255.734H0ZM62.5 256.96V252.976H64.5V256.96H62.5ZM198.5 256.96V252.976H200.5V256.96H198.5ZM334.5 256.96V252.976H336.5V256.96H334.5ZM471.5 256.96V252.976H473.5V256.96H471.5ZM609 256.96V252.976H611V256.96H609ZM746.5 256.96V252.976H748.5V256.96H746.5ZM0 263.743V259.739H2V263.743H0ZM62.5 264.927V260.944H64.5V264.927H62.5ZM198.5 264.927V260.944H200.5V264.927H198.5ZM334.5 264.927V260.944H336.5V264.927H334.5ZM471.5 264.927V260.944H473.5V264.927H471.5ZM609 264.927V260.944H611V264.927H609ZM746.5 264.927V260.944H748.5V264.927H746.5ZM0 271.752V267.748H2V271.752H0ZM62.5 272.895V268.911H64.5V272.895H62.5ZM198.5 272.895V268.911H200.5V272.895H198.5ZM334.5 272.895V268.911H336.5V272.895H334.5ZM471.5 272.895V268.911H473.5V272.895H471.5ZM609 272.895V268.911H611V272.895H609ZM746.5 272.895V268.911H748.5V272.895H746.5ZM2 277.5H2.99432V275.5H1V275.757H0V279.761H2V277.5ZM10.9716 277.5H6.98295V275.5H10.9716V277.5ZM18.9489 277.5H14.9602V275.5H18.9489V277.5ZM26.9261 277.5H22.9375V275.5H26.9261V277.5ZM34.9034 277.5H30.9148V275.5H34.9034V277.5ZM42.8807 277.5H38.892V275.5H42.8807V277.5ZM50.858 277.5H46.8693V275.5H50.858V277.5ZM58.8352 277.5H54.8466V275.5H58.8352V277.5ZM64.5 277.5H66.8125V275.5H62.8239V276.879H62.5V280.863H64.5V277.5ZM74.7898 277.5H70.8011V275.5H74.7898V277.5ZM82.7671 277.5H78.7784V275.5H82.7671V277.5ZM90.7443 277.5H86.7557V275.5H90.7443V277.5ZM98.7216 277.5H94.733V275.5H98.7216V277.5ZM106.699 277.5H102.71V275.5H106.699V277.5ZM114.676 277.5H110.688V275.5H114.676V277.5ZM122.653 277.5H118.665V275.5H122.653V277.5ZM130.631 277.5H126.642V275.5H130.631V277.5ZM138.608 277.5H134.619V275.5H138.608V277.5ZM146.585 277.5H142.597V275.5H146.585V277.5ZM154.563 277.5H150.574V275.5H154.563V277.5ZM162.54 277.5H158.551V275.5H162.54V277.5ZM170.517 277.5H166.528V275.5H170.517V277.5ZM178.494 277.5H174.506V275.5H178.494V277.5ZM186.472 277.5H182.483V275.5H186.472V277.5ZM194.449 277.5H190.46V275.5H194.449V277.5ZM198.5 277.5H198.437V275.5H202.426V277.5H200.5V280.863H198.5V277.5ZM210.403 277.5H206.415V275.5H210.403V277.5ZM218.381 277.5H214.392V275.5H218.381V277.5ZM226.358 277.5H222.369V275.5H226.358V277.5ZM234.335 277.5H230.347V275.5H234.335V277.5ZM242.312 277.5H238.324V275.5H242.312V277.5ZM250.29 277.5H246.301V275.5H250.29V277.5ZM258.267 277.5H254.278V275.5H258.267V277.5ZM266.244 277.5H262.256V275.5H266.244V277.5ZM274.222 277.5H270.233V275.5H274.222V277.5ZM282.199 277.5H278.21V275.5H282.199V277.5ZM290.176 277.5H286.188V275.5H290.176V277.5ZM298.153 277.5H294.165V275.5H298.153V277.5ZM306.131 277.5H302.142V275.5H306.131V277.5ZM314.108 277.5H310.119V275.5H314.108V277.5ZM322.085 277.5H318.097V275.5H322.085V277.5ZM330.063 277.5H326.074V275.5H330.063V277.5ZM334.5 277.5H334.051V275.5H338.04V277.5H336.5V280.863H334.5V277.5ZM346.017 277.5H342.029V275.5H346.017V277.5ZM353.995 277.5H350.006V275.5H353.995V277.5ZM361.972 277.5H357.983V275.5H361.972V277.5ZM369.949 277.5H365.96V275.5H369.949V277.5ZM377.926 277.5H373.938V275.5H377.926V277.5ZM385.904 277.5H381.915V275.5H385.904V277.5ZM393.881 277.5H389.892V275.5H393.881V277.5ZM401.858 277.5H397.87V275.5H401.858V277.5ZM409.836 277.5H405.847V275.5H409.836V277.5ZM417.813 277.5H413.824V275.5H417.813V277.5ZM425.79 277.5H421.802V275.5H425.79V277.5ZM433.767 277.5H429.779V275.5H433.767V277.5ZM441.745 277.5H437.756V275.5H441.745V277.5ZM449.722 277.5H445.733V275.5H449.722V277.5ZM457.699 277.5H453.711V275.5H457.699V277.5ZM465.677 277.5H461.688V275.5H465.677V277.5ZM471.5 277.5H469.665V275.5H473.654V277.5H473.5V280.863H471.5V277.5ZM481.631 277.5H477.643V275.5H481.631V277.5ZM489.609 277.5H485.62V275.5H489.609V277.5ZM497.586 277.5H493.597V275.5H497.586V277.5ZM505.563 277.5H501.574V275.5H505.563V277.5ZM513.54 277.5H509.552V275.5H513.54V277.5ZM521.518 277.5H517.529V275.5H521.518V277.5ZM529.495 277.5H525.506V275.5H529.495V277.5ZM537.472 277.5H533.484V275.5H537.472V277.5ZM545.45 277.5H541.461V275.5H545.45V277.5ZM553.427 277.5H549.438V275.5H553.427V277.5ZM561.404 277.5H557.416V275.5H561.404V277.5ZM569.381 277.5H565.393V275.5H569.381V277.5ZM577.359 277.5H573.37V275.5H577.359V277.5ZM585.336 277.5H581.347V275.5H585.336V277.5ZM593.313 277.5H589.325V275.5H593.313V277.5ZM601.291 277.5H597.302V275.5H601.291V277.5ZM609 277.5H605.279V275.5H609.268V276.879H611V280.863H609V277.5ZM617.245 277.5H613.257V275.5H617.245V277.5ZM625.223 277.5H621.234V275.5H625.223V277.5ZM633.2 277.5H629.211V275.5H633.2V277.5ZM641.177 277.5H637.188V275.5H641.177V277.5ZM649.154 277.5H645.166V275.5H649.154V277.5ZM657.132 277.5H653.143V275.5H657.132V277.5ZM665.109 277.5H661.12V275.5H665.109V277.5ZM673.086 277.5H669.098V275.5H673.086V277.5ZM681.064 277.5H677.075V275.5H681.064V277.5ZM689.041 277.5H685.052V275.5H689.041V277.5ZM697.018 277.5H693.03V275.5H697.018V277.5ZM704.995 277.5H701.007V275.5H704.995V277.5ZM712.973 277.5H708.984V275.5H712.973V277.5ZM720.95 277.5H716.961V275.5H720.95V277.5ZM728.927 277.5H724.939V275.5H728.927V277.5ZM736.905 277.5H732.916V275.5H736.905V277.5ZM744.882 277.5H740.893V275.5H744.882V277.5ZM752.859 277.5H748.871V275.5H752.859V277.5ZM760.837 277.5H756.848V275.5H760.837V277.5ZM768.814 277.5H764.825V275.5H768.814V277.5ZM776.791 277.5H772.802V275.5H776.791V277.5ZM784.768 277.5H780.78V275.5H784.768V277.5ZM792.746 277.5H788.757V275.5H792.746V277.5ZM800.723 277.5H796.734V275.5H800.723V277.5ZM808.7 277.5H804.712V275.5H808.7V277.5ZM816.678 277.5H812.689V275.5H816.678V277.5ZM824.655 277.5H820.666V275.5H824.655V277.5ZM832.632 277.5H828.644V275.5H832.632V277.5ZM840.609 277.5H836.621V275.5H840.609V277.5ZM848.587 277.5H844.598V275.5H848.587V277.5ZM856.564 277.5H852.575V275.5H856.564V277.5ZM864.541 277.5H860.553V275.5H864.541V277.5ZM872.519 277.5H868.53V275.5H872.519V277.5ZM878.5 277.5H876.507V275.5H878.5V277.5ZM746.5 280.863V276.879H748.5V280.863H746.5ZM0 287.77V283.766H2V287.77H0ZM62.5 288.831V284.847H64.5V288.831H62.5ZM198.5 288.831V284.847H200.5V288.831H198.5ZM334.5 288.831V284.847H336.5V288.831H334.5ZM471.5 288.831V284.847H473.5V288.831H471.5ZM609 288.831V284.847H611V288.831H609ZM746.5 288.831V284.847H748.5V288.831H746.5ZM0 295.779V291.775H2V295.779H0ZM62.5 296.798V292.814H64.5V296.798H62.5ZM198.5 296.798V292.814H200.5V296.798H198.5ZM334.5 296.798V292.814H336.5V296.798H334.5ZM471.5 296.798V292.814H473.5V296.798H471.5ZM609 296.798V292.814H611V296.798H609ZM746.5 296.798V292.814H748.5V296.798H746.5ZM0 303.788V299.784H2V303.788H0ZM62.5 304.766V300.782H64.5V304.766H62.5ZM198.5 304.766V300.782H200.5V304.766H198.5ZM334.5 304.766V300.782H336.5V304.766H334.5ZM471.5 304.766V300.782H473.5V304.766H471.5ZM609 304.766V300.782H611V304.766H609ZM746.5 304.766V300.782H748.5V304.766H746.5ZM0 311.797V307.793H2V311.797H0ZM62.5 312.734V308.75H64.5V312.734H62.5ZM198.5 312.734V308.75H200.5V312.734H198.5ZM334.5 312.734V308.75H336.5V312.734H334.5ZM471.5 312.734V308.75H473.5V312.734H471.5ZM609 312.734V308.75H611V312.734H609ZM746.5 312.734V308.75H748.5V312.734H746.5ZM0 319.806V315.801H2V319.806H0ZM62.5 320.701V316.718H64.5V320.701H62.5ZM198.5 320.701V316.718H200.5V320.701H198.5ZM334.5 320.701V316.718H336.5V320.701H334.5ZM471.5 320.701V316.718H473.5V320.701H471.5ZM609 320.701V316.718H611V320.701H609ZM746.5 320.701V316.718H748.5V320.701H746.5ZM0 327.815V323.81H2V327.815H0ZM62.5 328.669V324.685H64.5V328.669H62.5ZM198.5 328.669V324.685H200.5V328.669H198.5ZM334.5 328.669V324.685H336.5V328.669H334.5ZM471.5 328.669V324.685H473.5V328.669H471.5ZM609 328.669V324.685H611V328.669H609ZM746.5 328.669V324.685H748.5V328.669H746.5ZM0 335.824V331.819H2V333.5H2.99432V335.5H2V335.824H0ZM62.5 336.637V332.653H64.5V333.5H66.8125V335.5H64.5V336.637H62.5ZM198.5 333.5V332.653H200.5V333.5H202.426V335.5H200.5V336.637H198.5V335.5H198.437V333.5H198.5ZM334.5 333.5V332.653H336.5V333.5H338.04V335.5H336.5V336.637H334.5V335.5H334.051V333.5H334.5ZM471.5 333.5V332.653H473.5V333.5H473.654V335.5H473.5V336.637H471.5V335.5H469.665V333.5H471.5ZM609 333.5V332.653H611V336.637H609V335.5H605.279V333.5H609ZM746.5 336.637V332.653H748.5V336.637H746.5ZM10.9716 335.5H6.98295V333.5H10.9716V335.5ZM18.9489 335.5H14.9602V333.5H18.9489V335.5ZM26.9261 335.5H22.9375V333.5H26.9261V335.5ZM34.9034 335.5H30.9148V333.5H34.9034V335.5ZM42.8807 335.5H38.892V333.5H42.8807V335.5ZM50.858 335.5H46.8693V333.5H50.858V335.5ZM58.8352 335.5H54.8466V333.5H58.8352V335.5ZM74.7898 335.5H70.8011V333.5H74.7898V335.5ZM82.7671 335.5H78.7784V333.5H82.7671V335.5ZM90.7443 335.5H86.7557V333.5H90.7443V335.5ZM98.7216 335.5H94.733V333.5H98.7216V335.5ZM106.699 335.5H102.71V333.5H106.699V335.5ZM114.676 335.5H110.688V333.5H114.676V335.5ZM122.653 335.5H118.665V333.5H122.653V335.5ZM130.631 335.5H126.642V333.5H130.631V335.5ZM138.608 335.5H134.619V333.5H138.608V335.5ZM146.585 335.5H142.597V333.5H146.585V335.5ZM154.563 335.5H150.574V333.5H154.563V335.5ZM162.54 335.5H158.551V333.5H162.54V335.5ZM170.517 335.5H166.528V333.5H170.517V335.5ZM178.494 335.5H174.506V333.5H178.494V335.5ZM186.472 335.5H182.483V333.5H186.472V335.5ZM194.449 335.5H190.46V333.5H194.449V335.5ZM210.403 335.5H206.415V333.5H210.403V335.5ZM218.381 335.5H214.392V333.5H218.381V335.5ZM226.358 335.5H222.369V333.5H226.358V335.5ZM234.335 335.5H230.347V333.5H234.335V335.5ZM242.312 335.5H238.324V333.5H242.312V335.5ZM250.29 335.5H246.301V333.5H250.29V335.5ZM258.267 335.5H254.278V333.5H258.267V335.5ZM266.244 335.5H262.256V333.5H266.244V335.5ZM274.222 335.5H270.233V333.5H274.222V335.5ZM282.199 335.5H278.21V333.5H282.199V335.5ZM290.176 335.5H286.188V333.5H290.176V335.5ZM298.153 335.5H294.165V333.5H298.153V335.5ZM306.131 335.5H302.142V333.5H306.131V335.5ZM314.108 335.5H310.119V333.5H314.108V335.5ZM322.085 335.5H318.097V333.5H322.085V335.5ZM330.063 335.5H326.074V333.5H330.063V335.5ZM346.017 335.5H342.029V333.5H346.017V335.5ZM353.995 335.5H350.006V333.5H353.995V335.5ZM361.972 335.5H357.983V333.5H361.972V335.5ZM369.949 335.5H365.96V333.5H369.949V335.5ZM377.926 335.5H373.938V333.5H377.926V335.5ZM385.904 335.5H381.915V333.5H385.904V335.5ZM393.881 335.5H389.892V333.5H393.881V335.5ZM401.858 335.5H397.87V333.5H401.858V335.5ZM409.836 335.5H405.847V333.5H409.836V335.5ZM417.813 335.5H413.824V333.5H417.813V335.5ZM425.79 335.5H421.802V333.5H425.79V335.5ZM433.767 335.5H429.779V333.5H433.767V335.5ZM441.745 335.5H437.756V333.5H441.745V335.5ZM449.722 335.5H445.733V333.5H449.722V335.5ZM457.699 335.5H453.711V333.5H457.699V335.5ZM465.677 335.5H461.688V333.5H465.677V335.5ZM481.631 335.5H477.643V333.5H481.631V335.5ZM489.609 335.5H485.62V333.5H489.609V335.5ZM497.586 335.5H493.597V333.5H497.586V335.5ZM505.563 335.5H501.574V333.5H505.563V335.5ZM513.54 335.5H509.552V333.5H513.54V335.5ZM521.518 335.5H517.529V333.5H521.518V335.5ZM529.495 335.5H525.506V333.5H529.495V335.5ZM537.472 335.5H533.484V333.5H537.472V335.5ZM545.45 335.5H541.461V333.5H545.45V335.5ZM553.427 335.5H549.438V333.5H553.427V335.5ZM561.404 335.5H557.416V333.5H561.404V335.5ZM569.381 335.5H565.393V333.5H569.381V335.5ZM577.359 335.5H573.37V333.5H577.359V335.5ZM585.336 335.5H581.347V333.5H585.336V335.5ZM593.313 335.5H589.325V333.5H593.313V335.5ZM601.291 335.5H597.302V333.5H601.291V335.5ZM617.245 335.5H613.257V333.5H617.245V335.5ZM625.223 335.5H621.234V333.5H625.223V335.5ZM633.2 335.5H629.211V333.5H633.2V335.5ZM641.177 335.5H637.188V333.5H641.177V335.5ZM649.154 335.5H645.166V333.5H649.154V335.5ZM657.132 335.5H653.143V333.5H657.132V335.5ZM665.109 335.5H661.12V333.5H665.109V335.5ZM673.086 335.5H669.098V333.5H673.086V335.5ZM681.064 335.5H677.075V333.5H681.064V335.5ZM689.041 335.5H685.052V333.5H689.041V335.5ZM697.018 335.5H693.03V333.5H697.018V335.5ZM704.995 335.5H701.007V333.5H704.995V335.5ZM712.973 335.5H708.984V333.5H712.973V335.5ZM720.95 335.5H716.961V333.5H720.95V335.5ZM728.927 335.5H724.939V333.5H728.927V335.5ZM736.905 335.5H732.916V333.5H736.905V335.5ZM744.882 335.5H740.893V333.5H744.882V335.5ZM752.859 335.5H748.871V333.5H752.859V335.5ZM760.837 335.5H756.848V333.5H760.837V335.5ZM768.814 335.5H764.825V333.5H768.814V335.5ZM776.791 335.5H772.802V333.5H776.791V335.5ZM784.768 335.5H780.78V333.5H784.768V335.5ZM792.746 335.5H788.757V333.5H792.746V335.5ZM800.723 335.5H796.734V333.5H800.723V335.5ZM808.7 335.5H804.712V333.5H808.7V335.5ZM816.678 335.5H812.689V333.5H816.678V335.5ZM824.655 335.5H820.666V333.5H824.655V335.5ZM832.632 335.5H828.644V333.5H832.632V335.5ZM840.609 335.5H836.621V333.5H840.609V335.5ZM848.587 335.5H844.598V333.5H848.587V335.5ZM856.564 335.5H852.575V333.5H856.564V335.5ZM864.541 335.5H860.553V333.5H864.541V335.5ZM872.519 335.5H868.53V333.5H872.519V335.5ZM878.5 335.5H876.507V333.5H878.5V335.5ZM0 343.833V339.828H2V343.833H0ZM62.5 344.605V340.621H64.5V344.605H62.5ZM198.5 344.605V340.621H200.5V344.605H198.5ZM334.5 344.605V340.621H336.5V344.605H334.5ZM471.5 344.605V340.621H473.5V344.605H471.5ZM609 344.605V340.621H611V344.605H609ZM746.5 344.605V340.621H748.5V344.605H746.5ZM0 351.842V347.837H2V351.842H0ZM62.5 352.572V348.588H64.5V352.572H62.5ZM198.5 352.572V348.588H200.5V352.572H198.5ZM334.5 352.572V348.588H336.5V352.572H334.5ZM471.5 352.572V348.588H473.5V352.572H471.5ZM609 352.572V348.588H611V352.572H609ZM746.5 352.572V348.588H748.5V352.572H746.5ZM0 359.85V355.846H2V359.85H0ZM62.5 360.54V356.556H64.5V360.54H62.5ZM198.5 360.54V356.556H200.5V360.54H198.5ZM334.5 360.54V356.556H336.5V360.54H334.5ZM471.5 360.54V356.556H473.5V360.54H471.5ZM609 360.54V356.556H611V360.54H609ZM746.5 360.54V356.556H748.5V360.54H746.5ZM0 367.859V363.855H2V367.859H0ZM62.5 368.508V364.524H64.5V368.508H62.5ZM198.5 368.508V364.524H200.5V368.508H198.5ZM334.5 368.508V364.524H336.5V368.508H334.5ZM471.5 368.508V364.524H473.5V368.508H471.5ZM609 368.508V364.524H611V368.508H609ZM746.5 368.508V364.524H748.5V368.508H746.5ZM0 375.868V371.864H2V375.868H0ZM62.5 376.475V372.492H64.5V376.475H62.5ZM198.5 376.475V372.492H200.5V376.475H198.5ZM334.5 376.475V372.492H336.5V376.475H334.5ZM471.5 376.475V372.492H473.5V376.475H471.5ZM609 376.475V372.492H611V376.475H609ZM746.5 376.475V372.492H748.5V376.475H746.5ZM0 383.877V379.873H2V383.877H0ZM62.5 384.443V380.459H64.5V384.443H62.5ZM198.5 384.443V380.459H200.5V384.443H198.5ZM334.5 384.443V380.459H336.5V384.443H334.5ZM471.5 384.443V380.459H473.5V384.443H471.5ZM609 384.443V380.459H611V384.443H609ZM746.5 384.443V380.459H748.5V384.443H746.5ZM2 389.5H2.99432V387.5H1V387.882H0V391.886H2V389.5ZM10.9716 389.5H6.98295V387.5H10.9716V389.5ZM18.9489 389.5H14.9602V387.5H18.9489V389.5ZM26.9261 389.5H22.9375V387.5H26.9261V389.5ZM34.9034 389.5H30.9148V387.5H34.9034V389.5ZM42.8807 389.5H38.892V387.5H42.8807V389.5ZM50.858 389.5H46.8693V387.5H50.858V389.5ZM58.8352 389.5H54.8466V387.5H58.8352V389.5ZM64.5 389.5H66.8125V387.5H62.8239V388.427H62.5V392.411H64.5V389.5ZM74.7898 389.5H70.8011V387.5H74.7898V389.5ZM82.7671 389.5H78.7784V387.5H82.7671V389.5ZM90.7443 389.5H86.7557V387.5H90.7443V389.5ZM98.7216 389.5H94.733V387.5H98.7216V389.5ZM106.699 389.5H102.71V387.5H106.699V389.5ZM114.676 389.5H110.688V387.5H114.676V389.5ZM122.653 389.5H118.665V387.5H122.653V389.5ZM130.631 389.5H126.642V387.5H130.631V389.5ZM138.608 389.5H134.619V387.5H138.608V389.5ZM146.585 389.5H142.597V387.5H146.585V389.5ZM154.563 389.5H150.574V387.5H154.563V389.5ZM162.54 389.5H158.551V387.5H162.54V389.5ZM170.517 389.5H166.528V387.5H170.517V389.5ZM178.494 389.5H174.506V387.5H178.494V389.5ZM186.472 389.5H182.483V387.5H186.472V389.5ZM194.449 389.5H190.46V387.5H194.449V389.5ZM198.5 389.5H198.437V387.5H202.426V389.5H200.5V392.411H198.5V389.5ZM210.403 389.5H206.415V387.5H210.403V389.5ZM218.381 389.5H214.392V387.5H218.381V389.5ZM226.358 389.5H222.369V387.5H226.358V389.5ZM234.335 389.5H230.347V387.5H234.335V389.5ZM242.312 389.5H238.324V387.5H242.312V389.5ZM250.29 389.5H246.301V387.5H250.29V389.5ZM258.267 389.5H254.278V387.5H258.267V389.5ZM266.244 389.5H262.256V387.5H266.244V389.5ZM274.222 389.5H270.233V387.5H274.222V389.5ZM282.199 389.5H278.21V387.5H282.199V389.5ZM290.176 389.5H286.188V387.5H290.176V389.5ZM298.153 389.5H294.165V387.5H298.153V389.5ZM306.131 389.5H302.142V387.5H306.131V389.5ZM314.108 389.5H310.119V387.5H314.108V389.5ZM322.085 389.5H318.097V387.5H322.085V389.5ZM330.063 389.5H326.074V387.5H330.063V389.5ZM334.5 389.5H334.051V387.5H338.04V389.5H336.5V392.411H334.5V389.5ZM346.017 389.5H342.029V387.5H346.017V389.5ZM353.995 389.5H350.006V387.5H353.995V389.5ZM361.972 389.5H357.983V387.5H361.972V389.5ZM369.949 389.5H365.96V387.5H369.949V389.5ZM377.926 389.5H373.938V387.5H377.926V389.5ZM385.904 389.5H381.915V387.5H385.904V389.5ZM393.881 389.5H389.892V387.5H393.881V389.5ZM401.858 389.5H397.87V387.5H401.858V389.5ZM409.836 389.5H405.847V387.5H409.836V389.5ZM417.813 389.5H413.824V387.5H417.813V389.5ZM425.79 389.5H421.802V387.5H425.79V389.5ZM433.767 389.5H429.779V387.5H433.767V389.5ZM441.745 389.5H437.756V387.5H441.745V389.5ZM449.722 389.5H445.733V387.5H449.722V389.5ZM457.699 389.5H453.711V387.5H457.699V389.5ZM465.677 389.5H461.688V387.5H465.677V389.5ZM471.5 389.5H469.665V387.5H473.654V389.5H473.5V392.411H471.5V389.5ZM481.631 389.5H477.643V387.5H481.631V389.5ZM489.609 389.5H485.62V387.5H489.609V389.5ZM497.586 389.5H493.597V387.5H497.586V389.5ZM505.563 389.5H501.574V387.5H505.563V389.5ZM513.54 389.5H509.552V387.5H513.54V389.5ZM521.518 389.5H517.529V387.5H521.518V389.5ZM529.495 389.5H525.506V387.5H529.495V389.5ZM537.472 389.5H533.484V387.5H537.472V389.5ZM545.45 389.5H541.461V387.5H545.45V389.5ZM553.427 389.5H549.438V387.5H553.427V389.5ZM561.404 389.5H557.416V387.5H561.404V389.5ZM569.381 389.5H565.393V387.5H569.381V389.5ZM577.359 389.5H573.37V387.5H577.359V389.5ZM585.336 389.5H581.347V387.5H585.336V389.5ZM593.313 389.5H589.325V387.5H593.313V389.5ZM601.291 389.5H597.302V387.5H601.291V389.5ZM609 389.5H605.279V387.5H609.268V388.427H611V392.411H609V389.5ZM617.245 389.5H613.257V387.5H617.245V389.5ZM625.223 389.5H621.234V387.5H625.223V389.5ZM633.2 389.5H629.211V387.5H633.2V389.5ZM641.177 389.5H637.188V387.5H641.177V389.5ZM649.154 389.5H645.166V387.5H649.154V389.5ZM657.132 389.5H653.143V387.5H657.132V389.5ZM665.109 389.5H661.12V387.5H665.109V389.5ZM673.086 389.5H669.098V387.5H673.086V389.5ZM681.064 389.5H677.075V387.5H681.064V389.5ZM689.041 389.5H685.052V387.5H689.041V389.5ZM697.018 389.5H693.03V387.5H697.018V389.5ZM704.995 389.5H701.007V387.5H704.995V389.5ZM712.973 389.5H708.984V387.5H712.973V389.5ZM720.95 389.5H716.961V387.5H720.95V389.5ZM728.927 389.5H724.939V387.5H728.927V389.5ZM736.905 389.5H732.916V387.5H736.905V389.5ZM744.882 389.5H740.893V387.5H744.882V389.5ZM752.859 389.5H748.871V387.5H752.859V389.5ZM760.837 389.5H756.848V387.5H760.837V389.5ZM768.814 389.5H764.825V387.5H768.814V389.5ZM776.791 389.5H772.802V387.5H776.791V389.5ZM784.768 389.5H780.78V387.5H784.768V389.5ZM792.746 389.5H788.757V387.5H792.746V389.5ZM800.723 389.5H796.734V387.5H800.723V389.5ZM808.7 389.5H804.712V387.5H808.7V389.5ZM816.678 389.5H812.689V387.5H816.678V389.5ZM824.655 389.5H820.666V387.5H824.655V389.5ZM832.632 389.5H828.644V387.5H832.632V389.5ZM840.609 389.5H836.621V387.5H840.609V389.5ZM848.587 389.5H844.598V387.5H848.587V389.5ZM856.564 389.5H852.575V387.5H856.564V389.5ZM864.541 389.5H860.553V387.5H864.541V389.5ZM872.519 389.5H868.53V387.5H872.519V389.5ZM878.5 389.5H876.507V387.5H878.5V389.5ZM746.5 392.411V388.427H748.5V392.411H746.5ZM0 399.895V395.891H2V399.895H0ZM62.5 400.379V396.395H64.5V400.379H62.5ZM198.5 400.379V396.395H200.5V400.379H198.5ZM334.5 400.379V396.395H336.5V400.379H334.5ZM471.5 400.379V396.395H473.5V400.379H471.5ZM609 400.379V396.395H611V400.379H609ZM746.5 400.379V396.395H748.5V400.379H746.5ZM0 407.904V403.9H2V407.904H0ZM62.5 408.346V404.362H64.5V408.346H62.5ZM198.5 408.346V404.362H200.5V408.346H198.5ZM334.5 408.346V404.362H336.5V408.346H334.5ZM471.5 408.346V404.362H473.5V408.346H471.5ZM609 408.346V404.362H611V408.346H609ZM746.5 408.346V404.362H748.5V408.346H746.5ZM0 415.913V411.908H2V415.913H0ZM62.5 416.314V412.33H64.5V416.314H62.5ZM198.5 416.314V412.33H200.5V416.314H198.5ZM334.5 416.314V412.33H336.5V416.314H334.5ZM471.5 416.314V412.33H473.5V416.314H471.5ZM609 416.314V412.33H611V416.314H609ZM746.5 416.314V412.33H748.5V416.314H746.5ZM0 423.922V419.917H2V423.922H0ZM62.5 424.282V420.298H64.5V424.282H62.5ZM198.5 424.282V420.298H200.5V424.282H198.5ZM334.5 424.282V420.298H336.5V424.282H334.5ZM471.5 424.282V420.298H473.5V424.282H471.5ZM609 424.282V420.298H611V424.282H609ZM746.5 424.282V420.298H748.5V424.282H746.5ZM0 431.931V427.926H2V431.931H0ZM62.5 432.249V428.266H64.5V432.249H62.5ZM198.5 432.249V428.266H200.5V432.249H198.5ZM334.5 432.249V428.266H336.5V432.249H334.5ZM471.5 432.249V428.266H473.5V432.249H471.5ZM609 432.249V428.266H611V432.249H609ZM746.5 432.249V428.266H748.5V432.249H746.5ZM0 439.94V435.935H2V439.94H0ZM62.5 440.217V436.233H64.5V440.217H62.5ZM198.5 440.217V436.233H200.5V440.217H198.5ZM334.5 440.217V436.233H336.5V440.217H334.5ZM471.5 440.217V436.233H473.5V440.217H471.5ZM609 440.217V436.233H611V440.217H609ZM746.5 440.217V436.233H748.5V440.217H746.5ZM0 447.949V443.944H2V447.5H2.99432V449.5H1V447.949H0ZM62.5 448.185V444.201H64.5V447.5H66.8125V449.5H62.8239V448.185H62.5ZM198.5 447.5V444.201H200.5V447.5H202.426V449.5H198.437V447.5H198.5ZM334.5 447.5V444.201H336.5V447.5H338.04V449.5H334.051V447.5H334.5ZM471.5 447.5V444.201H473.5V447.5H473.654V449.5H469.665V447.5H471.5ZM609 447.5V444.201H611V448.185H609.268V449.5H605.279V447.5H609ZM746.5 448.185V444.201H748.5V448.185H746.5ZM10.9716 449.5H6.98295V447.5H10.9716V449.5ZM18.9489 449.5H14.9602V447.5H18.9489V449.5ZM26.9261 449.5H22.9375V447.5H26.9261V449.5ZM34.9034 449.5H30.9148V447.5H34.9034V449.5ZM42.8807 449.5H38.892V447.5H42.8807V449.5ZM50.858 449.5H46.8693V447.5H50.858V449.5ZM58.8352 449.5H54.8466V447.5H58.8352V449.5ZM74.7898 449.5H70.8011V447.5H74.7898V449.5ZM82.7671 449.5H78.7784V447.5H82.7671V449.5ZM90.7443 449.5H86.7557V447.5H90.7443V449.5ZM98.7216 449.5H94.733V447.5H98.7216V449.5ZM106.699 449.5H102.71V447.5H106.699V449.5ZM114.676 449.5H110.688V447.5H114.676V449.5ZM122.653 449.5H118.665V447.5H122.653V449.5ZM130.631 449.5H126.642V447.5H130.631V449.5ZM138.608 449.5H134.619V447.5H138.608V449.5ZM146.585 449.5H142.597V447.5H146.585V449.5ZM154.563 449.5H150.574V447.5H154.563V449.5ZM162.54 449.5H158.551V447.5H162.54V449.5ZM170.517 449.5H166.528V447.5H170.517V449.5ZM178.494 449.5H174.506V447.5H178.494V449.5ZM186.472 449.5H182.483V447.5H186.472V449.5ZM194.449 449.5H190.46V447.5H194.449V449.5ZM210.403 449.5H206.415V447.5H210.403V449.5ZM218.381 449.5H214.392V447.5H218.381V449.5ZM226.358 449.5H222.369V447.5H226.358V449.5ZM234.335 449.5H230.347V447.5H234.335V449.5ZM242.312 449.5H238.324V447.5H242.312V449.5ZM250.29 449.5H246.301V447.5H250.29V449.5ZM258.267 449.5H254.278V447.5H258.267V449.5ZM266.244 449.5H262.256V447.5H266.244V449.5ZM274.222 449.5H270.233V447.5H274.222V449.5ZM282.199 449.5H278.21V447.5H282.199V449.5ZM290.176 449.5H286.188V447.5H290.176V449.5ZM298.153 449.5H294.165V447.5H298.153V449.5ZM306.131 449.5H302.142V447.5H306.131V449.5ZM314.108 449.5H310.119V447.5H314.108V449.5ZM322.085 449.5H318.097V447.5H322.085V449.5ZM330.063 449.5H326.074V447.5H330.063V449.5ZM346.017 449.5H342.029V447.5H346.017V449.5ZM353.995 449.5H350.006V447.5H353.995V449.5ZM361.972 449.5H357.983V447.5H361.972V449.5ZM369.949 449.5H365.96V447.5H369.949V449.5ZM377.926 449.5H373.938V447.5H377.926V449.5ZM385.904 449.5H381.915V447.5H385.904V449.5ZM393.881 449.5H389.892V447.5H393.881V449.5ZM401.858 449.5H397.87V447.5H401.858V449.5ZM409.836 449.5H405.847V447.5H409.836V449.5ZM417.813 449.5H413.824V447.5H417.813V449.5ZM425.79 449.5H421.802V447.5H425.79V449.5ZM433.767 449.5H429.779V447.5H433.767V449.5ZM441.745 449.5H437.756V447.5H441.745V449.5ZM449.722 449.5H445.733V447.5H449.722V449.5ZM457.699 449.5H453.711V447.5H457.699V449.5ZM465.677 449.5H461.688V447.5H465.677V449.5ZM481.631 449.5H477.643V447.5H481.631V449.5ZM489.609 449.5H485.62V447.5H489.609V449.5ZM497.586 449.5H493.597V447.5H497.586V449.5ZM505.563 449.5H501.574V447.5H505.563V449.5ZM513.54 449.5H509.552V447.5H513.54V449.5ZM521.518 449.5H517.529V447.5H521.518V449.5ZM529.495 449.5H525.506V447.5H529.495V449.5ZM537.472 449.5H533.484V447.5H537.472V449.5ZM545.45 449.5H541.461V447.5H545.45V449.5ZM553.427 449.5H549.438V447.5H553.427V449.5ZM561.404 449.5H557.416V447.5H561.404V449.5ZM569.381 449.5H565.393V447.5H569.381V449.5ZM577.359 449.5H573.37V447.5H577.359V449.5ZM585.336 449.5H581.347V447.5H585.336V449.5ZM593.313 449.5H589.325V447.5H593.313V449.5ZM601.291 449.5H597.302V447.5H601.291V449.5ZM617.245 449.5H613.257V447.5H617.245V449.5ZM625.223 449.5H621.234V447.5H625.223V449.5ZM633.2 449.5H629.211V447.5H633.2V449.5ZM641.177 449.5H637.188V447.5H641.177V449.5ZM649.154 449.5H645.166V447.5H649.154V449.5ZM657.132 449.5H653.143V447.5H657.132V449.5ZM665.109 449.5H661.12V447.5H665.109V449.5ZM673.086 449.5H669.098V447.5H673.086V449.5ZM681.064 449.5H677.075V447.5H681.064V449.5ZM689.041 449.5H685.052V447.5H689.041V449.5ZM697.018 449.5H693.03V447.5H697.018V449.5ZM704.995 449.5H701.007V447.5H704.995V449.5ZM712.973 449.5H708.984V447.5H712.973V449.5ZM720.95 449.5H716.961V447.5H720.95V449.5ZM728.927 449.5H724.939V447.5H728.927V449.5ZM736.905 449.5H732.916V447.5H736.905V449.5ZM744.882 449.5H740.893V447.5H744.882V449.5ZM752.859 449.5H748.871V447.5H752.859V449.5ZM760.837 449.5H756.848V447.5H760.837V449.5ZM768.814 449.5H764.825V447.5H768.814V449.5ZM776.791 449.5H772.802V447.5H776.791V449.5ZM784.768 449.5H780.78V447.5H784.768V449.5ZM792.746 449.5H788.757V447.5H792.746V449.5ZM800.723 449.5H796.734V447.5H800.723V449.5ZM808.7 449.5H804.712V447.5H808.7V449.5ZM816.678 449.5H812.689V447.5H816.678V449.5ZM824.655 449.5H820.666V447.5H824.655V449.5ZM832.632 449.5H828.644V447.5H832.632V449.5ZM840.609 449.5H836.621V447.5H840.609V449.5ZM848.587 449.5H844.598V447.5H848.587V449.5ZM856.564 449.5H852.575V447.5H856.564V449.5ZM864.541 449.5H860.553V447.5H864.541V449.5ZM872.519 449.5H868.53V447.5H872.519V449.5ZM878.5 449.5H876.507V447.5H878.5V449.5ZM0 455.957V451.953H2V455.957H0ZM62.5 456.152V452.169H64.5V456.152H62.5ZM198.5 456.152V452.169H200.5V456.152H198.5ZM334.5 456.152V452.169H336.5V456.152H334.5ZM471.5 456.152V452.169H473.5V456.152H471.5ZM609 456.152V452.169H611V456.152H609ZM746.5 456.152V452.169H748.5V456.152H746.5ZM0 463.966V459.962H2V463.966H0ZM62.5 464.12V460.136H64.5V464.12H62.5ZM198.5 464.12V460.136H200.5V464.12H198.5ZM334.5 464.12V460.136H336.5V464.12H334.5ZM471.5 464.12V460.136H473.5V464.12H471.5ZM609 464.12V460.136H611V464.12H609ZM746.5 464.12V460.136H748.5V464.12H746.5ZM0 471.975V467.971H2V471.975H0ZM62.5 472.088V468.104H64.5V472.088H62.5ZM198.5 472.088V468.104H200.5V472.088H198.5ZM334.5 472.088V468.104H336.5V472.088H334.5ZM471.5 472.088V468.104H473.5V472.088H471.5ZM609 472.088V468.104H611V472.088H609ZM746.5 472.088V468.104H748.5V472.088H746.5ZM0 479.984V475.98H2V479.984H0ZM62.5 480.056V476.072H64.5V480.056H62.5ZM198.5 480.056V476.072H200.5V480.056H198.5ZM334.5 480.056V476.072H336.5V480.056H334.5ZM471.5 480.056V476.072H473.5V480.056H471.5ZM609 480.056V476.072H611V480.056H609ZM746.5 480.056V476.072H748.5V480.056H746.5ZM0 487.993V483.989H2V487.993H0ZM62.5 488.023V484.039H64.5V488.023H62.5ZM198.5 488.023V484.039H200.5V488.023H198.5ZM334.5 488.023V484.039H336.5V488.023H334.5ZM471.5 488.023V484.039H473.5V488.023H471.5ZM609 488.023V484.039H611V488.023H609ZM746.5 488.023V484.039H748.5V488.023H746.5ZM0 491.998H2V493H2.95312V495H0V491.998ZM62.5 493V492.007H64.5V493H65.5V495H61.5469V493H62.5ZM198.5 493V492.007H200.5V493H201.5V495H197.5V493H198.5ZM334.5 493V492.007H336.5V493H337.515V495H333.5V493H334.5ZM471.5 493V492.007H473.5V493H474.522V495H470.485V493H471.5ZM609 493V492.007H611V493H612.022V495H607.978V493H609ZM746.5 493V492.007H748.5V493H749.547V495H745.478V493H746.5ZM10.7656 495H6.85938V493H10.7656V495ZM18.5781 495H14.6719V493H18.5781V495ZM26.3906 495H22.4844V493H26.3906V495ZM34.2031 495H30.2969V493H34.2031V495ZM42.0156 495H38.1094V493H42.0156V495ZM49.8281 495H45.9219V493H49.8281V495ZM57.6406 495H53.7344V493H57.6406V495ZM73.5 495H69.5V493H73.5V495ZM81.5 495H77.5V493H81.5V495ZM89.5 495H85.5V493H89.5V495ZM97.5 495H93.5V493H97.5V495ZM105.5 495H101.5V493H105.5V495ZM113.5 495H109.5V493H113.5V495ZM121.5 495H117.5V493H121.5V495ZM129.5 495H125.5V493H129.5V495ZM137.5 495H133.5V493H137.5V495ZM145.5 495H141.5V493H145.5V495ZM153.5 495H149.5V493H153.5V495ZM161.5 495H157.5V493H161.5V495ZM169.5 495H165.5V493H169.5V495ZM177.5 495H173.5V493H177.5V495ZM185.5 495H181.5V493H185.5V495ZM193.5 495H189.5V493H193.5V495ZM209.5 495H205.5V493H209.5V495ZM217.5 495H213.5V493H217.5V495ZM225.5 495H221.5V493H225.5V495ZM233.5 495H229.5V493H233.5V495ZM241.5 495H237.5V493H241.5V495ZM249.5 495H245.5V493H249.5V495ZM257.5 495H253.5V493H257.5V495ZM265.5 495H261.5V493H265.5V495ZM273.5 495H269.5V493H273.5V495ZM281.5 495H277.5V493H281.5V495ZM289.5 495H285.5V493H289.5V495ZM297.5 495H293.5V493H297.5V495ZM305.5 495H301.5V493H305.5V495ZM313.5 495H309.5V493H313.5V495ZM321.5 495H317.5V493H321.5V495ZM329.5 495H325.5V493H329.5V495ZM345.574 495H341.544V493H345.574V495ZM353.632 495H349.603V493H353.632V495ZM361.691 495H357.662V493H361.691V495ZM369.75 495H365.721V493H369.75V495ZM377.809 495H373.779V493H377.809V495ZM385.868 495H381.838V493H385.868V495ZM393.926 495H389.897V493H393.926V495ZM401.985 495H397.956V493H401.985V495ZM410.044 495H406.015V493H410.044V495ZM418.103 495H414.074V493H418.103V495ZM426.162 495H422.132V493H426.162V495ZM434.221 495H430.191V493H434.221V495ZM442.279 495H438.25V493H442.279V495ZM450.338 495H446.309V493H450.338V495ZM458.397 495H454.368V493H458.397V495ZM466.456 495H462.426V493H466.456V495ZM482.61 495H478.566V493H482.61V495ZM490.699 495H486.654V493H490.699V495ZM498.787 495H494.743V493H498.787V495ZM506.875 495H502.831V493H506.875V495ZM514.963 495H510.919V493H514.963V495ZM523.051 495H519.007V493H523.051V495ZM531.14 495H527.096V493H531.14V495ZM539.228 495H535.184V493H539.228V495ZM547.316 495H543.272V493H547.316V495ZM555.404 495H551.36V493H555.404V495ZM563.493 495H559.449V493H563.493V495ZM571.581 495H567.537V493H571.581V495ZM579.669 495H575.625V493H579.669V495ZM587.757 495H583.713V493H587.757V495ZM595.846 495H591.802V493H595.846V495ZM603.934 495H599.89V493H603.934V495ZM620.11 495H616.066V493H620.11V495ZM628.199 495H624.154V493H628.199V495ZM636.287 495H632.243V493H636.287V495ZM644.375 495H640.331V493H644.375V495ZM652.463 495H648.419V493H652.463V495ZM660.551 495H656.507V493H660.551V495ZM668.64 495H664.596V493H668.64V495ZM676.728 495H672.684V493H676.728V495ZM684.816 495H680.772V493H684.816V495ZM692.904 495H688.86V493H692.904V495ZM700.993 495H696.949V493H700.993V495ZM709.081 495H705.037V493H709.081V495ZM717.169 495H713.125V493H717.169V495ZM725.257 495H721.213V493H725.257V495ZM733.346 495H729.302V493H733.346V495ZM741.434 495H737.39V493H741.434V495ZM757.734 495H753.641V493H757.734V495ZM765.922 495H761.828V493H765.922V495ZM774.109 495H770.016V493H774.109V495ZM782.297 495H778.203V493H782.297V495ZM790.484 495H786.391V493H790.484V495ZM798.672 495H794.578V493H798.672V495ZM806.859 495H802.766V493H806.859V495ZM815.047 495H810.953V493H815.047V495ZM823.234 495H819.141V493H823.234V495ZM831.422 495H827.328V493H831.422V495ZM839.609 495H835.516V493H839.609V495ZM847.797 495H843.703V493H847.797V495ZM855.984 495H851.891V493H855.984V495ZM864.172 495H860.078V493H864.172V495ZM872.359 495H868.266V493H872.359V495ZM878.5 495H876.453V493H878.5V495Z" fill="#F6F6F6"/>
</svg>
